# xmcd
#
# Track frame offsets:
#   150
#   21362
#   53742
#   77552
#   87035
#   113457
#   133657
#   156847
#   174825
#   193482
#   214235
#   241970
#   277365
#   282362
#   313682
#
# Disc length: 4425 seconds
#
# Revision: 1
# Processed by: cddbd v1.5PL3 Copyright (c) Steve Scherf et al.
# Submitted via: AudioBrowser/FreeDBQuery 0.90.695
#
DISCID=d411470f
DTITLE=Muddy Waters - They Call Me Muddy Waters
DYEAR=1998
DGENRE=Blues
TTITLE0=Harry's Groove
TTITLE1=Last Nite
TTITLE2=Nine Below Zero
TTITLE3=Instrumental
TTITLE4=They Call Me Muddy Waters
TTITLE5=Baby Please Don't Go (Live)
TTITLE6=Mannish Boy
TTITLE7=Everything Gonna Be Alright
TTITLE8=Corrina, Corrina
TTITLE9=Lonesome In My Bedroom
TTITLE10=Caldonia
TTITLE11=Kansas City
TTITLE12=Hold It
TTITLE13=Long Distance Call
TTITLE14=Got My Mojo Working
EXTD=
EXTT0=
EXTT1=
EXTT2=
EXTT3=
EXTT4=
EXTT5=
EXTT6=
EXTT7=
EXTT8=
EXTT9=
EXTT10=
EXTT11=
EXTT12=
EXTT13=
EXTT14=
PLAYORDER=
